<?xml version="1.0" encoding="UTF-8" standalone="no"?>
<svg width="800px" height="400px" viewBox="0 0 800 400" version="1.1" xmlns="http://www.w3.org/2000/svg" xmlns:xlink="http://www.w3.org/1999/xlink">
    <!-- Generator: Sketch 3.7 (28169) - http://www.bohemiancoding.com/sketch -->
    <title>Group</title>
    <desc>Created with Sketch.</desc>
    <defs>
        <radialGradient cx="50.7202148%" cy="50%" fx="50.7202148%" fy="50%" r="100%" id="radialGradient-1">
            <stop stop-color="#A7CE52" offset="0%"></stop>
            <stop stop-color="#599E52" offset="100%"></stop>
        </radialGradient>
    </defs>
    <g id="Page-2" stroke="none" stroke-width="1" fill="none" fill-rule="evenodd">
        <g id="Group">
            <rect id="Rectangle-6" fill="url(#radialGradient-1)" x="0" y="0" width="800" height="400"></rect>
            <path d="M493.30303,197.513224 C493.30303,197.513224 481.017675,213.302636 481.072581,213.338039 C480.973339,213.274047 465.032969,197.513224 465.032969,197.513224 C465.032969,197.513224 457.626443,197.513224 457.626443,197.513224 L457.626443,247.513224 L507.626443,247.513224 L507.626443,197.513224 L493.30303,197.513224 Z M473.6219,217.030015 C473.072124,217.030015 472.626443,217.476965 472.626443,218.032456 L472.626443,218.527574 C472.626443,219.081207 473.081706,219.530015 473.6219,219.530015 L496.630986,219.530015 C497.180762,219.530015 497.626443,219.083065 497.626443,218.527574 L497.626443,218.032456 C497.626443,217.478823 497.17118,217.030015 496.630986,217.030015 L473.6219,217.030015 Z M467.626443,217.030015 L467.626443,219.530015 L470.126443,219.530015 L470.126443,217.030015 L467.626443,217.030015 Z M473.6219,226.199132 C473.072124,226.199132 472.626443,226.646082 472.626443,227.201572 L472.626443,227.696691 C472.626443,228.250324 473.081706,228.699132 473.6219,228.699132 L496.630986,228.699132 C497.180762,228.699132 497.626443,228.252182 497.626443,227.696691 L497.626443,227.201572 C497.626443,226.64794 497.17118,226.199132 496.630986,226.199132 L473.6219,226.199132 Z M467.626443,226.199132 L467.626443,228.699132 L470.126443,228.699132 L470.126443,226.199132 L467.626443,226.199132 Z M473.6219,235.368248 C473.072124,235.368248 472.626443,235.815198 472.626443,236.370689 L472.626443,236.865807 C472.626443,237.41944 473.081706,237.868248 473.6219,237.868248 L496.630986,237.868248 C497.180762,237.868248 497.626443,237.421298 497.626443,236.865807 L497.626443,236.370689 C497.626443,235.817056 497.17118,235.368248 496.630986,235.368248 L473.6219,235.368248 Z M467.626443,235.368248 L467.626443,237.868248 L470.126443,237.868248 L470.126443,235.368248 L467.626443,235.368248 Z M480.861904,205.74222 C480.861905,205.74222 470.17119,195.664958 470.17119,195.664958 C469.766966,195.283928 469.090096,195.246628 468.642938,195.594418 L468.331846,195.836379 C467.892039,196.17845 467.85178,196.779033 468.233228,197.16893 C468.233228,197.16893 480.861905,210.077316 480.861905,210.077316 C480.861905,210.077316 497.990077,187.101885 497.990077,187.101885 C498.321452,186.657385 498.261579,186.005459 497.849314,185.639525 L497.341479,185.18876 C496.932364,184.825621 496.334137,184.890496 496.002949,185.336834 C496.002949,185.336834 480.861904,205.742221 480.861904,205.74222 Z" id="todos_F" fill="#8D2A14" transform="translate(482.626443, 216.286646) rotate(-355.000000) translate(-482.626443, -216.286646) "></path>
            <path d="M154.71587,26.7906013 C153.059988,26.7906013 151.71763,28.1264891 151.71763,29.7946469 L151.71763,111.056981 C151.71763,112.71607 153.061398,114.061027 154.71587,114.061027 L193.619393,114.061027 C195.275274,114.061027 196.617632,112.725139 196.617632,111.056981 L196.617632,29.7946469 C196.617632,28.1355584 195.273864,26.7906013 193.619393,26.7906013 L154.71587,26.7906013 Z M155.993821,35.3047892 L155.993821,101.289745 L192.341441,101.289745 L192.341441,35.3047892 L155.993821,35.3047892 Z M171.463806,31.0476953 C171.185831,31.0476953 170.960488,31.2754871 170.960488,31.5413768 L170.960488,32.6825607 C170.960488,32.9552135 171.188776,33.1762422 171.463806,33.1762422 L176.871456,33.1762422 C177.149431,33.1762422 177.374774,32.9484504 177.374774,32.6825607 L177.374774,31.5413768 C177.374774,31.268724 177.146486,31.0476953 176.871456,31.0476953 L171.463806,31.0476953 Z M174.167631,109.803933 C175.938887,109.803933 177.374774,108.374459 177.374774,106.611112 C177.374774,104.847766 175.938887,103.418292 174.167631,103.418292 C172.396375,103.418292 170.960488,104.847766 170.960488,106.611112 C170.960488,108.374459 172.396375,109.803933 174.167631,109.803933 Z M158.131916,37.4333362 L158.131916,99.1611981 L190.203346,99.1611981 L190.203346,37.4333362 L158.131916,37.4333362 Z" id="iPhone_F" fill="#8D2A14" transform="translate(174.167631, 70.425814) rotate(-355.000000) translate(-174.167631, -70.425814) "></path>
            <path d="M559.040479,318.262852 L563.244577,318.262852 L563.244577,315.960911 C563.244577,315.685019 563.471088,315.46012 563.750503,315.46012 L564.140018,315.46012 C564.42698,315.46012 564.645943,315.684332 564.645943,315.960911 L564.645943,318.262852 L568.850041,318.262852 L568.850041,315.960911 C568.850041,315.685019 569.076552,315.46012 569.355966,315.46012 L569.745482,315.46012 C570.032444,315.46012 570.251407,315.684332 570.251407,315.960911 L570.251407,318.262852 L574.455505,318.262852 L574.455505,315.960911 C574.455505,315.685019 574.682016,315.46012 574.96143,315.46012 L575.350946,315.46012 C575.637908,315.46012 575.856871,315.684332 575.856871,315.960911 L575.856871,318.262852 L580.060969,318.262852 L580.060969,315.960911 C580.060969,315.685019 580.287479,315.46012 580.566894,315.46012 L580.95641,315.46012 C581.243372,315.46012 581.462335,315.684332 581.462335,315.960911 L581.462335,318.262852 L585.666433,318.262852 L585.666433,315.960911 C585.666433,315.685019 585.892943,315.46012 586.172358,315.46012 L586.561874,315.46012 C586.848835,315.46012 587.067799,315.684332 587.067799,315.960911 L587.067799,318.262852 L591.271897,318.262852 L591.271897,315.960911 C591.271897,315.685019 591.498407,315.46012 591.777822,315.46012 L592.167337,315.46012 C592.454299,315.46012 592.673263,315.684332 592.673263,315.960911 L592.673263,318.262852 L599.680093,318.262852 L599.680093,379.922955 L549.230918,379.922955 L549.230918,318.262852 L557.639113,318.262852 L557.639113,315.960911 C557.639113,315.685019 557.865624,315.46012 558.145039,315.46012 L558.534554,315.46012 C558.821516,315.46012 559.040479,315.684332 559.040479,315.960911 L559.040479,318.262852 Z M559.004743,323.552477 C559.028124,323.653985 559.040479,323.759708 559.040479,323.868316 C559.040479,324.642269 558.413067,325.269682 557.639113,325.269682 C556.86516,325.269682 556.237747,324.642269 556.237747,323.868316 C556.237747,323.094363 556.86516,322.46695 557.639113,322.46695 L557.639113,323.367525 C557.639113,323.644105 557.858077,323.868316 558.145039,323.868316 L558.534554,323.868316 C558.747863,323.868316 558.930339,323.737245 559.004743,323.552477 Z M564.610206,323.552477 C564.633588,323.653985 564.645943,323.759708 564.645943,323.868316 C564.645943,324.642269 564.01853,325.269682 563.244577,325.269682 C562.470624,325.269682 561.843211,324.642269 561.843211,323.868316 C561.843211,323.094363 562.470624,322.46695 563.244577,322.46695 L563.244577,323.367525 C563.244577,323.644105 563.463541,323.868316 563.750503,323.868316 L564.140018,323.868316 C564.353327,323.868316 564.535803,323.737245 564.610206,323.552477 Z M570.21567,323.552477 C570.239052,323.653985 570.251407,323.759708 570.251407,323.868316 C570.251407,324.642269 569.623994,325.269682 568.850041,325.269682 C568.076088,325.269682 567.448675,324.642269 567.448675,323.868316 C567.448675,323.094363 568.076088,322.46695 568.850041,322.46695 L568.850041,323.367525 C568.850041,323.644105 569.069005,323.868316 569.355966,323.868316 L569.745482,323.868316 C569.958791,323.868316 570.141267,323.737245 570.21567,323.552477 Z M587.032062,323.552477 C587.055444,323.653985 587.067799,323.759708 587.067799,323.868316 C587.067799,324.642269 586.440386,325.269682 585.666433,325.269682 C584.89248,325.269682 584.265067,324.642269 584.265067,323.868316 C584.265067,323.094363 584.89248,322.46695 585.666433,322.46695 L585.666433,323.367525 C585.666433,323.644105 585.885396,323.868316 586.172358,323.868316 L586.561874,323.868316 C586.775182,323.868316 586.957659,323.737245 587.032062,323.552477 Z M592.637526,323.552477 C592.660907,323.653985 592.673263,323.759708 592.673263,323.868316 C592.673263,324.642269 592.04585,325.269682 591.271897,325.269682 C590.497944,325.269682 589.870531,324.642269 589.870531,323.868316 C589.870531,323.094363 590.497944,322.46695 591.271897,322.46695 L591.271897,323.367525 C591.271897,323.644105 591.49086,323.868316 591.777822,323.868316 L592.167337,323.868316 C592.380646,323.868316 592.563122,323.737245 592.637526,323.552477 Z M581.426598,323.552477 C581.44998,323.653985 581.462335,323.759708 581.462335,323.868316 C581.462335,324.642269 580.834922,325.269682 580.060969,325.269682 C579.287016,325.269682 578.659603,324.642269 578.659603,323.868316 C578.659603,323.094363 579.287016,322.46695 580.060969,322.46695 L580.060969,323.367525 C580.060969,323.644105 580.279932,323.868316 580.566894,323.868316 L580.95641,323.868316 C581.169718,323.868316 581.352195,323.737245 581.426598,323.552477 Z M575.821134,323.552477 C575.844516,323.653985 575.856871,323.759708 575.856871,323.868316 C575.856871,324.642269 575.229458,325.269682 574.455505,325.269682 C573.681552,325.269682 573.054139,324.642269 573.054139,323.868316 C573.054139,323.094363 573.681552,322.46695 574.455505,322.46695 L574.455505,323.367525 C574.455505,323.644105 574.674469,323.868316 574.96143,323.868316 L575.350946,323.868316 C575.564255,323.868316 575.746731,323.737245 575.821134,323.552477 Z M557.231206,330.875146 C556.682534,330.875146 556.237747,331.313073 556.237747,331.871176 L556.237747,332.681848 C556.237747,333.23194 556.685282,333.677878 557.231206,333.677878 L591.679804,333.677878 C592.228476,333.677878 592.673263,333.239951 592.673263,332.681848 L592.673263,331.871176 C592.673263,331.321084 592.225728,330.875146 591.679804,330.875146 L557.231206,330.875146 Z M557.231206,350.49427 C556.682534,350.49427 556.237747,350.932196 556.237747,351.4903 L556.237747,352.300971 C556.237747,352.851064 556.685282,353.297002 557.231206,353.297002 L591.679804,353.297002 C592.228476,353.297002 592.673263,352.859075 592.673263,352.300971 L592.673263,351.4903 C592.673263,350.940207 592.225728,350.49427 591.679804,350.49427 L557.231206,350.49427 Z M557.243163,340.684708 C556.687887,340.684708 556.237747,341.122635 556.237747,341.680738 L556.237747,342.49141 C556.237747,343.041502 556.688077,343.48744 557.243163,343.48744 L573.45009,343.48744 C574.005365,343.48744 574.455505,343.049513 574.455505,342.49141 L574.455505,341.680738 C574.455505,341.130646 574.005176,340.684708 573.45009,340.684708 L557.243163,340.684708 Z M557.243163,360.303831 C556.687887,360.303831 556.237747,360.741758 556.237747,361.299861 L556.237747,362.110533 C556.237747,362.660625 556.688077,363.106563 557.243163,363.106563 L573.45009,363.106563 C574.005365,363.106563 574.455505,362.668636 574.455505,362.110533 L574.455505,361.299861 C574.455505,360.749769 574.005176,360.303831 573.45009,360.303831 L557.243163,360.303831 Z" id="notepad_F" fill="#8D2A14" transform="translate(574.455505, 347.691538) rotate(-6.000000) translate(-574.455505, -347.691538) "></path>
            <path d="M274.381483,220.565114 L274.381483,225.860199 L318.860199,225.860199 L318.860199,181.381483 L313.565114,181.381483 L313.565114,220.565114 L274.381483,220.565114 Z M268.027381,175.027381 L268.027381,219.506097 L312.506097,219.506097 L312.506097,175.027381 L268.027381,175.027381 Z M276.436732,187.735585 C275.886528,187.735585 275.4405,188.184766 275.4405,188.744977 L275.4405,188.844228 C275.4405,189.401699 275.895439,189.85362 276.436732,189.85362 L301.978711,189.85362 C302.528915,189.85362 302.974944,189.404439 302.974944,188.844228 L302.974944,188.744977 C302.974944,188.187506 302.520005,187.735585 301.978711,187.735585 L276.436732,187.735585 Z M276.438533,194.089688 C275.887335,194.089688 275.4405,194.538868 275.4405,195.09908 L275.4405,195.19833 C275.4405,195.755802 275.892904,196.207722 276.438533,196.207722 L293.504774,196.207722 C294.055972,196.207722 294.502807,195.758541 294.502807,195.19833 L294.502807,195.09908 C294.502807,194.541608 294.050403,194.089688 293.504774,194.089688 L276.438533,194.089688 Z" id="memo_F" fill="#8D2A14" transform="translate(293.443790, 200.443790) rotate(-350.000000) translate(-293.443790, -200.443790) "></path>
            <path d="M145.986857,289.33694 L145.986857,344.292152 L196.603499,344.292152 L196.603499,289.33694 L145.986857,289.33694 Z M148.287614,291.626741 L148.287614,342.002351 L162.092152,342.002351 L162.092152,291.626741 L148.287614,291.626741 Z M164.392909,291.626741 L164.392909,342.002351 L178.197447,342.002351 L178.197447,291.626741 L164.392909,291.626741 Z M180.498204,291.626741 L180.498204,342.002351 L194.302743,342.002351 L194.302743,291.626741 L180.498204,291.626741 Z M150.58837,295.061442 L150.58837,324.828848 L159.791396,324.828848 L159.791396,295.061442 L150.58837,295.061442 Z M155.189883,338.567651 C157.731228,338.567651 159.791396,336.517293 159.791396,333.98805 C159.791396,331.458806 157.731228,329.408449 155.189883,329.408449 C152.648537,329.408449 150.58837,331.458806 150.58837,333.98805 C150.58837,336.517293 152.648537,338.567651 155.189883,338.567651 Z M166.693665,295.061442 L166.693665,324.828848 L175.896691,324.828848 L175.896691,295.061442 L166.693665,295.061442 Z M171.295178,338.567651 C173.836524,338.567651 175.896691,336.517293 175.896691,333.98805 C175.896691,331.458806 173.836524,329.408449 171.295178,329.408449 C168.753833,329.408449 166.693665,331.458806 166.693665,333.98805 C166.693665,336.517293 168.753833,338.567651 171.295178,338.567651 Z M182.79896,295.061442 L182.79896,324.828848 L192.001986,324.828848 L192.001986,295.061442 L182.79896,295.061442 Z M187.400473,338.567651 C189.941819,338.567651 192.001986,336.517293 192.001986,333.98805 C192.001986,331.458806 189.941819,329.408449 187.400473,329.408449 C184.859128,329.408449 182.79896,331.458806 182.79896,333.98805 C182.79896,336.517293 184.859128,338.567651 187.400473,338.567651 Z" id="binder_F" fill="#8D2A14" transform="translate(171.295178, 316.814546) rotate(-351.000000) translate(-171.295178, -316.814546) "></path>
            <path d="M587.490453,79.5926883 L590.739903,79.5926883 L590.739903,102.469324 C590.739903,102.469324 565.565131,136.4063 565.565131,136.4063 C565.565131,136.406299 540.390361,102.469324 540.390361,102.469324 L540.390361,79.5926883 L543.195366,79.5926883 L543.195366,102.13168 L565.342909,131.887949 L587.490452,102.463259 L587.490453,79.5926883 Z M565.079119,127.080206 L578.42682,109.14374 L552.426552,109.14374 L565.079119,127.080206 Z M557.706915,98.8930849 C557.706915,101.261822 554.951949,103.182062 551.553526,103.182062 C548.155102,103.182062 545.400136,101.261822 545.400136,98.8930849 L545.400136,79.5286044 L557.706915,79.5286044 L557.706915,98.8930848 Z M571.552042,98.8930849 C571.552042,101.261822 568.797076,103.182062 565.398652,103.182062 C562.000229,103.182062 559.245263,101.261822 559.245263,98.8930849 L559.245263,79.5286044 L571.552042,79.5286044 L571.552042,98.8930848 Z M585.397168,98.8930848 C585.397168,101.261821 582.642202,103.182062 579.243779,103.182062 C575.845355,103.182062 573.090389,101.261821 573.090389,98.8930847 L573.090389,79.5286044 L585.397168,79.5286044 L585.397168,98.8930848 Z" id="pencil_F" fill="#8D2A14" transform="translate(565.565132, 107.967452) rotate(-320.000000) translate(-565.565132, -107.967452) "></path>
            <path d="M387.575988,101.573274 L387.575988,102.978238 L342.45599,102.978238 L342.45599,35.5399544 L387.575988,35.5399544 L387.575988,36.9449186 C388.592197,36.9449186 391.214599,36.9449186 391.214599,36.9449186 C392.323101,36.9449186 393.215988,37.8394763 393.215988,38.9429692 L393.215988,48.9965105 C393.215988,49.4885508 393.035985,49.9409026 392.737812,50.2902993 C393.036198,50.6393779 393.215988,51.0924772 393.215988,51.5876473 L393.215988,61.6411886 C393.215988,62.133229 393.035985,62.5855808 392.737812,62.9349775 C393.036198,63.2840561 393.215988,63.7371554 393.215988,64.2323255 L393.215988,74.2858668 C393.215988,74.7779071 393.035985,75.2302589 392.737812,75.5796556 C393.036198,75.9287343 393.215988,76.3818335 393.215988,76.8770036 L393.215988,86.9305449 C393.215988,87.4225853 393.035985,87.8749371 392.737812,88.2243338 C393.036198,88.5734124 393.215988,89.0265117 393.215988,89.5216818 L393.215988,99.5752231 C393.215988,100.673033 392.319936,101.573274 391.214599,101.573274 L387.575988,101.573274 Z M387.539987,87.8690347 C387.539987,87.1539036 387.539987,76.2839173 387.539987,76.2839173 C387.539987,76.2839173 390.805801,76.2839173 390.805801,76.2839173 C391.349451,76.2839173 391.805988,76.7275524 391.805988,77.274804 L391.805988,86.9150479 C391.805988,87.1595267 391.717342,87.3826108 391.570279,87.5549414 C391.454901,87.5343685 391.336044,87.5236312 391.214599,87.5236312 C391.214599,87.5236312 388.540047,87.5236312 387.084267,87.5236312 Z M387.539987,75.2243565 C387.539987,74.5092255 387.539987,63.6392392 387.539987,63.6392392 C387.539987,63.6392392 390.805801,63.6392392 390.805801,63.6392392 C391.349451,63.6392392 391.805988,64.0828742 391.805988,64.6301258 L391.805988,74.2703697 C391.805988,74.5148486 391.717342,74.7379327 391.570279,74.9102633 C391.454901,74.8896904 391.336044,74.8789531 391.214599,74.8789531 C391.214599,74.8789531 388.540047,74.8789531 387.084267,74.8789531 Z M387.539987,62.5796784 C387.539987,61.8645473 387.539987,50.994561 387.539987,50.994561 C387.539987,50.994561 390.805801,50.994561 390.805801,50.994561 C391.349451,50.994561 391.805988,51.4381961 391.805988,51.9854477 L391.805988,61.6256916 C391.805988,61.8701704 391.717342,62.0932545 391.570279,62.2655851 C392.035459,62.3485307 392.444093,62.5913577 392.737812,62.9349775 Z M387.539987,49.9350002 C387.539987,49.2198691 387.539987,38.3498829 387.539987,38.3498829 C387.539987,38.3498829 390.805801,38.3498829 390.805801,38.3498829 C391.349451,38.3498829 391.805988,38.7935179 391.805988,39.3407695 L391.805988,48.9810134 C391.805988,49.2254923 391.717342,49.4485764 391.570279,49.620907 C391.454901,49.600334 391.336044,49.5895968 391.214599,49.5895968 C391.214599,49.5895968 388.540047,49.5895968 387.084267,49.5895968 Z M387.539987,88.9285955 C387.539987,88.9285955 387.539987,100.550613 387.539987,100.550613 L390.805801,100.550613 C391.358189,100.550613 391.805988,100.109208 391.805988,99.559726 L391.805988,89.9194821 C391.805988,89.3722305 391.349451,88.9285955 390.805801,88.9285955 C390.805801,88.9285955 387.539987,88.9285955 387.539987,88.9285955 Z M360.377014,90.3335597 C359.824163,90.3335597 359.375989,90.772611 359.375989,91.3321472 L359.375989,92.1449007 C359.375989,92.6964053 359.832149,93.1434882 360.377014,93.1434882 L369.654964,93.1434882 C370.207815,93.1434882 370.655989,92.7044369 370.655989,92.1449007 L370.655989,91.3321472 C370.655989,90.7806426 370.199829,90.3335597 369.654964,90.3335597 L360.377014,90.3335597 Z M353.320916,46.7796683 C352.771433,46.7796683 352.32599,47.2187196 352.32599,47.7782558 L352.32599,48.5910093 C352.32599,49.1425139 352.766507,49.5895968 353.320916,49.5895968 L376.711063,49.5895968 C377.260545,49.5895968 377.705989,49.1505455 377.705989,48.5910093 L377.705989,47.7782558 C377.705989,47.2267512 377.265471,46.7796683 376.711063,46.7796683 L353.320916,46.7796683 Z M363.204308,86.118667 C362.647429,86.118667 362.195989,86.5577183 362.195989,87.1172545 L362.195989,87.930008 C362.195989,88.4815126 362.638551,88.9285955 363.204308,88.9285955 L366.82767,88.9285955 C367.384549,88.9285955 367.835989,88.4895442 367.835989,87.930008 L367.835989,87.1172545 C367.835989,86.5657499 367.393428,86.118667 366.82767,86.118667 L363.204308,86.118667 Z" id="notebook_F" fill="#8D2A14" transform="translate(367.835989, 69.259096) rotate(-12.000000) translate(-367.835989, -69.259096) "></path>
            <path d="M309.405275,288.954726 C308.131655,289.099702 307.142075,290.184587 307.142075,291.498425 L307.142075,294.759245 C307.142075,296.17318 308.284028,297.319402 309.696317,297.319402 L310.844747,297.319402 L303.667658,324.223682 L322.667658,357.579342 L341.667658,324.223682 L334.497832,297.319402 L335.639,297.319402 C337.049669,297.319402 338.193241,296.171614 338.193241,294.759245 L338.193241,291.498425 C338.193241,290.186206 337.20968,289.104569 335.939274,288.955736 L339.933916,275.618558 L305.43262,275.618558 L309.405275,288.954726 Z M311.096631,292.290721 C310.818044,292.290721 310.592205,292.523793 310.592205,292.802753 L310.592205,293.454917 C310.592205,293.737704 310.815868,293.966948 311.096631,293.966948 L334.238686,293.966948 C334.517273,293.966948 334.743112,293.733876 334.743112,293.454917 L334.743112,292.802753 C334.743112,292.519965 334.519449,292.290721 334.238686,292.290721 L311.096631,292.290721 Z M320.942594,322.014306 L320.942594,346.603795 C320.942594,347.157412 321.393638,347.606208 321.940514,347.606208 L323.394803,347.606208 C323.945939,347.606208 324.392723,347.163079 324.392723,346.603795 L324.392723,322.014306 C325.423969,321.434651 326.117788,320.351232 326.117788,319.110351 C326.117788,317.258842 324.573112,315.757897 322.667658,315.757897 C320.762204,315.757897 319.217529,317.258842 319.217529,319.110351 C319.217529,320.351232 319.911347,321.434651 320.942594,322.014306 Z M322.667658,320.786578 C323.620385,320.786578 324.392723,320.036106 324.392723,319.110351 C324.392723,318.184596 323.620385,317.434124 322.667658,317.434124 C321.714931,317.434124 320.942594,318.184596 320.942594,319.110351 C320.942594,320.036106 321.714931,320.786578 322.667658,320.786578 Z" id="pen_F" fill="#8D2A14" transform="translate(322.667658, 316.598950) rotate(-326.000000) translate(-322.667658, -316.598950) "></path>
            <path d="M677.327209,63.892998 C677.327209,63.892998 677.327209,73.8999097 677.327209,73.8999097 L681.070092,73.8999097 L681.070092,105.142998 L723.575254,105.142998 L723.575254,73.8999097 L727.327209,73.8999097 L727.327209,63.892998 L677.327209,63.892998 Z M683.577209,73.892998 L683.577209,102.642998 L721.077209,102.642998 L721.077209,73.892998 L683.577209,73.892998 Z M696.585566,77.642998 C694.924096,77.642998 693.577209,78.9838477 693.577209,80.6503202 L693.577209,82.1356757 C693.577209,83.7965739 694.921347,85.142998 696.585566,85.142998 L708.068852,85.142998 C709.730322,85.142998 711.077209,83.8021483 711.077209,82.1356757 L711.077209,80.6503202 C711.077209,78.989422 709.733071,77.642998 708.068852,77.642998 L696.585566,77.642998 Z M697.079006,80.142998 C696.525729,80.142998 696.077209,80.5899479 696.077209,81.1454387 L696.077209,81.6405572 C696.077209,82.19419 696.522091,82.642998 697.079006,82.642998 L707.575412,82.642998 C708.128689,82.642998 708.577209,82.1960481 708.577209,81.6405572 L708.577209,81.1454387 C708.577209,80.591806 708.132327,80.142998 707.575412,80.142998 L697.079006,80.142998 Z" id="box_F" fill="#8D2A14" transform="translate(702.327209, 84.517998) rotate(-353.000000) translate(-702.327209, -84.517998) "></path>
            <path d="M111.027278,224.495223 L108.532168,224.495223 C108.532168,224.495223 108.532168,216.999379 108.532168,216.999379 C108.532169,216.999379 90.5185598,216.999379 90.5185598,216.999379 C89.4257099,216.999379 88.5272778,216.106311 88.5272778,215.004656 C88.5272778,215.004656 88.5272778,210.749379 88.5272778,210.749379 C88.5272778,210.749379 138.527278,210.749379 138.527278,210.749379 L138.527278,215.004656 C138.527278,216.103906 137.635923,216.999379 136.536381,216.999379 L118.52626,216.999379 L118.52626,224.495223 L116.027278,224.495223 L116.027278,224.499379 L111.027278,224.499379 L111.027278,224.495223 Z M104.519081,224.499379 C103.971323,224.499379 103.527278,224.946329 103.527278,225.50182 L103.527278,225.996938 C103.527278,226.550571 103.982583,226.999379 104.519081,226.999379 L122.535475,226.999379 C123.083232,226.999379 123.527278,226.552429 123.527278,225.996938 L123.527278,225.50182 C123.527278,224.948187 123.071972,224.499379 122.535475,224.499379 L104.519081,224.499379 Z M90.5181919,181.999379 C89.4186404,181.999379 88.5272778,182.902963 88.5272778,183.993941 L88.5272778,208.249379 L138.527278,208.249379 L138.527278,183.993941 C138.527278,182.892375 137.638214,181.999379 136.536364,181.999379 L90.5181919,181.999379 Z M113.527278,214.499379 C114.217634,214.499379 114.777278,213.939735 114.777278,213.249379 C114.777278,212.559023 114.217634,211.999379 113.527278,211.999379 C112.836922,211.999379 112.277278,212.559023 112.277278,213.249379 C112.277278,213.939735 112.836922,214.499379 113.527278,214.499379 Z" id="iMac_F" fill="#8D2A14" transform="translate(113.527278, 204.499379) rotate(-10.000000) translate(-113.527278, -204.499379) "></path>
            <path d="M636.099494,215.941161 C636.099494,215.941161 636.099494,245.972319 636.099494,245.972319 C636.099494,248.183885 637.897535,249.976714 640.097844,249.976714 L687.081652,249.976714 C689.28988,249.976714 691.080002,248.194736 691.080002,245.972319 L691.080002,215.941161 C691.080002,215.941161 636.099494,215.941161 636.099494,215.941161 Z M639.0046,200 C637.345205,200 636,201.341754 636,203.001112 C636,203.001112 636,214.399656 636,214.399656 C636,214.399656 690.980508,214.399657 690.980508,214.399657 L690.980508,211.3644 C690.980508,209.707604 689.637893,208.364506 687.978309,208.364506 L649.926049,208.364506 L649.926049,202.996153 C649.926049,201.341423 648.590761,200 646.921449,200 L639.0046,200 Z" id="folder_F" fill="#8D2A14"></path>
        </g>
    </g>
</svg>